{"title":"The Brotherhood VI: Initiation (2009) DVD RIP Gay intrest","uid":9496057,"size":1109498692,"categoryP":"video","categoryS":"movies","magnet":"?xt=urn:btih:dcd1e8d4b79ecaea26d5f11f0292402e7430c933&amp;dn=+The+Brotherhood+VI%3A+Initiation+%282009%29+DVD+RIP+Gay+intrest&amp;tr=udp%3A%2F%2Ftracker.openbittorrent.com%3A80&amp;tr=udp%3A%2F%2Fopen.demonii.com%3A1337&amp;tr=udp%3A%2F%2Ftracker.coppersurfer.tk%3A6969&amp;tr=udp%3A%2F%2Fexodus.desync.com%3A6969","seeders":4,"leechers":1,"uploader":null,"files":-1,"time":1390113303,"description":" &lt;a href=&quot;http://www.imdb.com/title/tt1311063/&quot; rel=&quot;nofollow&quot; target=&quot;_NEW&quot;&gt;http://www.imdb.com/title/tt1311063/&lt;/a&gt;\n\n\n\nMovie Info\n\nAaron Jaeger and Bryan McMullin star in this horror film about a group of fraternity pledges whose initiation turns deadly at the hands of a murderous lumberjack. ~ Tracie Cooper, Rovi \n\n\nFormat                                   : MPEG-4\nFormat profile                           : Base Media / Version 2\nCodec ID                                 : mp42\nFile size                                : 1.03 GiB\nDuration                                 : 1h 26mn\nOverall bit rate mode                    : Variable\nOverall bit rate                         : 1 702 Kbps\nEncoded date                             : UTC 2013-11-12 05:19:36\nTagged date                              : UTC 2013-11-12 06:36:19\nWriting application                      : HandBrake 0.9.9 2013052900\n\nVideo\nID                                       : 1\nFormat                                   : AVC\nFormat/Info                              : Advanced Video Codec\nFormat profile                           : &lt;a class=&quot;__cf_email__&quot; href=&quot;/cdn-cgi/l/email-protection&quot; data-cfemail=&quot;3c74555b547c7009120e&quot;&gt;[email&amp;#160;protected]&lt;/a&gt;&lt;script cf-hash='f9e31' type=&quot;text/javascript&quot;&gt;\n/* &lt;![CDATA[ */!function(){try{var t=&quot;currentScript&quot;in document?document.currentScript:function(){for(var t=document.getElementsByTagName(&quot;script&quot;),e=t.length;e--;)if(t[e].getAttribute(&quot;cf-hash&quot;))return t[e]}();if(t&amp;&amp;t.previousSibling){var e,r,n,i,c=t.previousSibling,a=c.getAttribute(&quot;data-cfemail&quot;);if(a){for(e=&quot;&quot;,r=parseInt(a.substr(0,2),16),n=2;a.length-n;n+=2)i=parseInt(a.substr(n,2),16)^r,e+=String.fromCharCode(i);e=document.createTextNode(e),c.parentNode.replaceChild(e,c)}}}catch(u){}}();/* ]]&gt; */&lt;/script&gt;\nFormat settings, CABAC                   : Yes\nFormat settings, ReFrames                : 5 frames\nCodec ID                                 : avc1\nCodec ID/Info                            : Advanced Video Coding\nDuration                                 : 1h 26mn\nBit rate                                 : 1 371 Kbps\nWidth                                    : 720 pixels\nHeight                                   : 480 pixels\nDisplay aspect ratio                     : 16:9\nFrame rate mode                          : Variable\nFrame rate                               : 24.552 fps\nMinimum frame rate                       : 17.120 fps\nMaximum frame rate                       : 29.970 fps\nStandard                                 : NTSC\nColor space                              : YUV\nChroma subsampling                       : 4:2:0\nBit depth                                : 8 bits\nScan type                                : Progressive\nBits/(Pixel*Frame)                       : 0.162\nStream size                              : 852 MiB (81%)\nWriting library                          : x264 core 130 r2273 b3065e6\nEncoding settings                        : cabac=1 / ref=5 / deblock=1:0:0 / \nEncoded date                             : UTC 2013-11-12 05:19:36\nTagged date                              : UTC 2013-11-12 06:36:19\nColor primaries                          : BT.601 NTSC\nTransfer characteristics                 : BT.709\nMatrix coefficients                      : BT.601\n\nAudio #1\nID                                       : 2\nFormat                                   : AAC\nFormat/Info                              : Advanced Audio Codec\nFormat profile                           : LC\nCodec ID                                 : 40\nDuration                                 : 1h 26mn\nBit rate mode                            : Variable\nBit rate                                 : 160 Kbps\nMaximum bit rate                         : 290 Kbps\nChannel(s)                               : 2 channels\nChannel positions                        : Front: L R\nSampling rate                            : 48.0 KHz\nCompression mode                         : Lossy\nStream size                              : 99.4 MiB (9%)\nLanguage                                 : English\nEncoded date                             : UTC 2013-11-12 05:19:36\nTagged date                              : UTC 2013-11-12 06:36:19","torrent":{"xt":"urn:btih:dcd1e8d4b79ecaea26d5f11f0292402e7430c933","amp;dn":"+The+Brotherhood+VI%3A+Initiation+%282009%29+DVD+RIP+Gay+intrest","amp;tr":["udp%3A%2F%2Ftracker.openbittorrent.com%3A80","udp%3A%2F%2Fopen.demonii.com%3A1337","udp%3A%2F%2Ftracker.coppersurfer.tk%3A6969","udp%3A%2F%2Fexodus.desync.com%3A6969"],"infoHash":"dcd1e8d4b79ecaea26d5f11f0292402e7430c933","infoHashBuffer":{"type":"Buffer","data":[220,209,232,212,183,158,202,234,38,213,241,31,2,146,64,46,116,48,201,51]},"announce":[],"urlList":[]}}